<?xml version="1.0" encoding="UTF-8"?>
<svg width="94px" height="33px" viewBox="0 0 94 33" version="1.1" xmlns="http://www.w3.org/2000/svg" xmlns:xlink="http://www.w3.org/1999/xlink">
    <title>25A34132-1E71-453B-9119-F34C3E497D19</title>
    <g id="Branding" stroke="none" stroke-width="1" fill="none" fill-rule="evenodd">
        <g id="Homepage" transform="translate(-79.000000, -16.000000)" fill="#FFF" fill-rule="nonzero">
            <g id="navigation-copy">
                <path d="M88.6221053,46.7536842 C89.5792982,46.7536842 90.4303509,46.5703509 91.1752632,46.2036842 C91.9201754,45.8370175 92.5705263,45.3410526 93.1263158,44.7157895 C93.6821053,44.0905263 94.1510526,43.3649123 94.5331579,42.5389474 C94.9152632,41.7129825 95.2221053,40.8368421 95.4536842,39.9105263 C95.6852632,38.9842105 95.8531579,38.0385965 95.9573684,37.0736842 C96.0615789,36.1087719 96.1136842,35.1785965 96.1136842,34.2831579 C96.1136842,33.7273684 96.0615789,33.2314035 95.9573684,32.7952632 C95.8531579,32.3591228 95.6640351,31.9905263 95.39,31.6894737 C95.1159649,31.3884211 94.7377193,31.1607018 94.2552632,31.0063158 C93.772807,30.8519298 93.157193,30.7747368 92.4084211,30.7747368 C92.0919298,30.7747368 91.8159649,30.8114035 91.5805263,30.8847368 C91.3450877,30.9580702 91.1501754,31.0526316 90.9957895,31.1684211 C90.8414035,31.2842105 90.7275439,31.4173684 90.6542105,31.5678947 C90.5808772,31.7184211 90.5442105,31.8747368 90.5442105,32.0368421 C90.5442105,32.1989474 90.582807,32.3610526 90.66,32.5231579 C90.737193,32.6852632 90.8529825,32.8280702 91.0073684,32.9515789 C91.1617544,33.0750877 91.3489474,33.1754386 91.5689474,33.2526316 C91.7889474,33.3298246 92.045614,33.3684211 92.3389474,33.3684211 C92.5010526,33.3684211 92.6535088,33.3761404 92.7963158,33.3915789 C92.9391228,33.4070175 93.0626316,33.4475439 93.1668421,33.5131579 C93.2710526,33.5787719 93.3540351,33.6791228 93.4157895,33.8142105 C93.4775439,33.9492982 93.5084211,34.1326316 93.5084211,34.3642105 C93.5084211,34.5417544 93.4852632,34.7366667 93.4389474,34.9489474 C93.3926316,35.1612281 93.3385965,35.3831579 93.2768421,35.6147368 C92.3736842,36.2091228 91.4087719,36.6703509 90.3821053,36.9984211 C89.3554386,37.3264912 88.2322807,37.4905263 87.0126316,37.4905263 C86.3564912,37.4905263 85.7659649,37.3940351 85.2410526,37.2010526 C84.7161404,37.0080702 84.1989474,36.7147368 83.6894737,36.3210526 C83.18,35.9273684 82.8268421,35.4352632 82.63,34.8447368 C82.4331579,34.2542105 82.3347368,33.5614035 82.3347368,32.7663158 C82.3347368,31.4926316 82.4678947,30.3019298 82.7342105,29.1942105 C83.0005263,28.0864912 83.3614035,27.0733333 83.8168421,26.1547368 C84.2722807,25.2361404 84.7991228,24.4198246 85.3973684,23.7057895 C85.995614,22.9917544 86.6266667,22.3896491 87.2905263,21.8994737 C87.954386,21.4092982 88.6317544,21.0349123 89.3226316,20.7763158 C90.0135088,20.5177193 90.6715789,20.3884211 91.2968421,20.3884211 C91.8063158,20.3884211 92.2308772,20.5814035 92.5705263,20.9673684 C92.9101754,21.3533333 93.08,21.9322807 93.08,22.7042105 C93.08,22.8663158 93.0568421,23.0226316 93.0105263,23.1731579 C92.9642105,23.3236842 92.9159649,23.4684211 92.8657895,23.6073684 C92.815614,23.7463158 92.7673684,23.8852632 92.7210526,24.0242105 C92.6747368,24.1631579 92.6515789,24.3059649 92.6515789,24.4526316 C92.6515789,24.6378947 92.6805263,24.8173684 92.7384211,24.9910526 C92.7963158,25.1647368 92.8754386,25.3210526 92.9757895,25.46 C93.0761404,25.5989474 93.1957895,25.7108772 93.3347368,25.7957895 C93.4736842,25.8807018 93.6242105,25.9231579 93.7863158,25.9231579 C93.9947368,25.9231579 94.2147368,25.8478947 94.4463158,25.6973684 C94.6778947,25.5468421 94.917193,25.2901754 95.1642105,24.9273684 C95.3417544,24.6031579 95.4691228,24.2808772 95.5463158,23.9605263 C95.6235088,23.6401754 95.6621053,23.3178947 95.6621053,22.9936842 C95.6621053,22.16 95.5521053,21.4421053 95.3321053,20.84 C95.1121053,20.2378947 94.807193,19.74 94.4173684,19.3463158 C94.0275439,18.9526316 93.5682456,18.6631579 93.0394737,18.4778947 C92.5107018,18.2926316 91.9375439,18.2 91.32,18.2 C90.3164912,18.2 89.3149123,18.3678947 88.3152632,18.7036842 C87.315614,19.0394737 86.3603509,19.5142105 85.4494737,20.1278947 C84.5385965,20.7415789 83.6894737,21.4826316 82.9021053,22.3510526 C82.1147368,23.2194737 81.4315789,24.1882456 80.8526316,25.2573684 C80.2736842,26.3264912 79.8201754,27.484386 79.4921053,28.7310526 C79.1640351,29.9777193 79,31.2842105 79,32.6505263 C79,33.6926316 79.1601754,34.6864912 79.4805263,35.6321053 C79.8008772,36.5777193 80.2582456,37.4075439 80.8526316,38.1215789 C81.4470175,38.835614 82.2363158,39.4029825 83.2205263,39.8236842 C84.2047368,40.244386 85.2178947,40.4547368 86.26,40.4547368 C87.1554386,40.4547368 87.942807,40.387193 88.6221053,40.2521053 C89.3014035,40.1170175 89.9054386,39.935614 90.4342105,39.7078947 C90.9629825,39.4801754 91.4338596,39.2138596 91.8468421,38.9089474 C92.2598246,38.6040351 92.6515789,38.2817544 93.0221053,37.9421053 C92.8445614,38.6831579 92.6264912,39.4222807 92.3678947,40.1594737 C92.1092982,40.8966667 91.8236842,41.5624561 91.5110526,42.1568421 C91.1984211,42.7512281 90.8664912,43.2336842 90.5152632,43.6042105 C90.1640351,43.9747368 89.8070175,44.16 89.4442105,44.16 C89.12,44.16 88.8189474,44.1175439 88.5410526,44.0326316 C88.2631579,43.9477193 87.9968421,43.8531579 87.7421053,43.7489474 C87.4873684,43.6447368 87.2403509,43.5501754 87.0010526,43.4652632 C86.7617544,43.3803509 86.5147368,43.3378947 86.26,43.3378947 C86.0361404,43.3378947 85.8450877,43.4035088 85.6868421,43.5347368 C85.5285965,43.6659649 85.3973684,43.8203509 85.2931579,43.9978947 C85.1889474,44.1754386 85.1117544,44.3587719 85.0615789,44.5478947 C85.0114035,44.7370175 84.9863158,44.8894737 84.9863158,45.0052632 C84.9863158,45.2291228 85.0519298,45.4278947 85.1831579,45.6015789 C85.314386,45.7752632 85.4842105,45.9277193 85.6926316,46.0589474 C85.9010526,46.1901754 86.1384211,46.3001754 86.4047368,46.3889474 C86.6710526,46.4777193 86.9392982,46.5491228 87.2094737,46.6031579 C87.4796491,46.657193 87.7382456,46.6957895 87.9852632,46.7189474 C88.2322807,46.7421053 88.4445614,46.7536842 88.6221053,46.7536842 Z M99.5526316,38.2315789 C99.6915789,38.2315789 99.8189474,38.2064912 99.9347368,38.1563158 C100.050526,38.1061404 100.158596,38.0192982 100.258947,37.8957895 C100.359298,37.7722807 100.457719,37.6121053 100.554211,37.4152632 C100.650702,37.2184211 100.752982,36.9694737 100.861053,36.6684211 L100.861053,36.6684211 L102.933684,30.8905263 L103.118947,30.8905263 C103.180702,31.3768421 103.261754,31.8573684 103.362105,32.3321053 C103.462456,32.8068421 103.616842,33.2352632 103.825263,33.6173684 C104.033684,33.9994737 104.315439,34.3082456 104.670526,34.5436842 C105.025614,34.7791228 105.492632,34.8968421 106.071579,34.8968421 C106.395789,34.8968421 106.714211,34.8485965 107.026842,34.7521053 C107.339474,34.655614 107.640526,34.5359649 107.93,34.3931579 C108.219474,34.2503509 108.491579,34.0978947 108.746316,33.9357895 C109.001053,33.7736842 109.228772,33.6270175 109.429474,33.4957895 L109.429474,33.4957895 L109.603158,30.7863158 C109.255789,31.0719298 108.900702,31.3266667 108.537895,31.5505263 C108.229123,31.7435088 107.889474,31.917193 107.518947,32.0715789 C107.148421,32.2259649 106.789474,32.3031579 106.442105,32.3031579 C106.318596,32.3031579 106.200877,32.28 106.088947,32.2336842 C105.977018,32.1873684 105.876667,32.1082456 105.787895,31.9963158 C105.699123,31.884386 105.627719,31.7357895 105.573684,31.5505263 C105.519649,31.3652632 105.492632,31.1336842 105.492632,30.8557895 C105.492632,30.6936842 105.51193,30.4910526 105.550526,30.2478947 C105.589123,30.0047368 105.650877,29.6940351 105.735789,29.3157895 C105.820702,28.9375439 105.882456,28.6307018 105.921053,28.3952632 C105.959649,28.1598246 105.978947,27.9764912 105.978947,27.8452632 C105.978947,27.6754386 105.94807,27.5229825 105.886316,27.3878947 C105.824561,27.252807 105.741579,27.1389474 105.637368,27.0463158 C105.533158,26.9536842 105.411579,26.8822807 105.272632,26.8321053 C105.133684,26.7819298 104.990877,26.7568421 104.844211,26.7568421 C104.419649,26.7568421 104.045263,26.8707018 103.721053,27.0984211 C103.396842,27.3261404 103.107368,27.6059649 102.852632,27.9378947 C102.597895,28.2698246 102.354737,28.6866667 102.123158,29.1884211 C101.891579,29.6901754 101.698596,30.0954386 101.544211,30.4042105 L101.544211,30.4042105 L101.416842,30.4042105 C101.401404,30.0105263 101.412982,29.5512281 101.451579,29.0263158 C101.490175,28.5014035 101.509474,28.0961404 101.509474,27.8105263 C101.509474,27.5712281 101.503684,27.3821053 101.492105,27.2431579 C101.480526,27.1042105 101.447719,26.9980702 101.393684,26.9247368 C101.339649,26.8514035 101.256667,26.8050877 101.144737,26.7857895 C101.032807,26.7664912 100.876491,26.7568421 100.675789,26.7568421 C100.498246,26.7568421 100.349649,26.7664912 100.23,26.7857895 C100.110351,26.8050877 100.01,26.8436842 99.9289474,26.9015789 C99.8478947,26.9594737 99.7764912,27.0385965 99.7147368,27.1389474 C99.6529825,27.2392982 99.5912281,27.374386 99.5294737,27.5442105 C99.4291228,27.7989474 99.3287719,28.1231579 99.2284211,28.5168421 C99.1280702,28.9105263 99.0084211,29.4026316 98.8694737,29.9931579 C98.7305263,30.5836842 98.6166667,31.1394737 98.5278947,31.6605263 C98.4391228,32.1815789 98.3619298,32.6929825 98.2963158,33.1947368 C98.2307018,33.6964912 98.1785965,34.1731579 98.14,34.6247368 C98.1014035,35.0763158 98.0821053,35.4719298 98.0821053,35.8115789 C98.0821053,36.1203509 98.0994737,36.4194737 98.1342105,36.7089474 C98.1689474,36.9984211 98.2384211,37.2570175 98.3426316,37.4847368 C98.4468421,37.7124561 98.5954386,37.8938596 98.7884211,38.0289474 C98.9814035,38.1640351 99.2361404,38.2315789 99.5526316,38.2315789 Z M109.510526,38.2547368 C109.819298,38.2547368 110.137719,38.1910526 110.465789,38.0636842 C110.79386,37.9363158 111.11807,37.7607018 111.438421,37.5368421 C111.758772,37.3129825 112.073333,37.0485965 112.382105,36.7436842 C112.690877,36.4387719 112.984211,36.1049123 113.262105,35.7421053 C113.339298,36.097193 113.43,36.4194737 113.534211,36.7089474 C113.638421,36.9984211 113.765789,37.2473684 113.916316,37.4557895 C114.066842,37.6642105 114.246316,37.8263158 114.454737,37.9421053 C114.663158,38.0578947 114.914035,38.1157895 115.207368,38.1157895 C115.500702,38.1157895 115.817193,38.0752632 116.156842,37.9942105 C116.496491,37.9131579 116.84,37.8050877 117.187368,37.67 C117.534737,37.5349123 117.880175,37.3785965 118.223684,37.2010526 C118.567193,37.0235088 118.891404,36.8382456 119.196316,36.6452632 C119.501228,36.4522807 119.779123,36.2592982 120.03,36.0663158 C120.280877,35.8733333 120.491228,35.6919298 120.661053,35.5221053 C120.661053,35.2750877 120.659123,35.0512281 120.655263,34.8505263 C120.651404,34.6498246 120.649474,34.4549123 120.649474,34.2657895 C120.649474,34.0766667 120.647544,33.8778947 120.643684,33.6694737 C120.639825,33.4610526 120.637895,33.2294737 120.637895,32.9747368 C120.506667,33.1445614 120.334912,33.3278947 120.122632,33.5247368 C119.910351,33.7215789 119.674912,33.9203509 119.416316,34.1210526 C119.157719,34.3217544 118.885614,34.512807 118.6,34.6942105 C118.314386,34.875614 118.034561,35.0377193 117.760526,35.1805263 C117.486491,35.3233333 117.227895,35.437193 116.984737,35.5221053 C116.741579,35.6070175 116.535088,35.6494737 116.365263,35.6494737 C116.210877,35.6494737 116.093158,35.612807 116.012105,35.5394737 C115.931053,35.4661404 115.871228,35.3619298 115.832632,35.2268421 C115.794035,35.0917544 115.770877,34.9335088 115.763158,34.7521053 C115.755439,34.5707018 115.751579,34.3719298 115.751579,34.1557895 C115.751579,34.04 115.774737,33.8335088 115.821053,33.5363158 C115.867368,33.2391228 115.927193,32.8936842 116.000526,32.5 C116.07386,32.1063158 116.174211,31.6103509 116.301579,31.0121053 C116.428947,30.4138596 116.529298,29.9005263 116.602632,29.4721053 C116.675965,29.0436842 116.735789,28.65 116.782105,28.2910526 C116.828421,27.9321053 116.851579,27.6484211 116.851579,27.44 C116.851579,27.2238596 116.735789,27.0463158 116.504211,26.9073684 C116.272632,26.7684211 115.96,26.6989474 115.566316,26.6989474 C115.218947,26.6989474 114.908246,26.7626316 114.634211,26.89 C114.360175,27.0173684 114.20386,27.1736842 114.165263,27.3589474 L114.165263,27.3589474 L112.891579,33.6694737 C112.829825,33.9859649 112.737193,34.2638596 112.613684,34.5031579 C112.490175,34.7501754 112.347368,34.9508772 112.185263,35.1052632 C112.030877,35.2750877 111.864912,35.404386 111.687368,35.4931579 C111.509825,35.5819298 111.33614,35.6263158 111.166316,35.6263158 C111.050526,35.6263158 110.950175,35.5954386 110.865263,35.5336842 C110.780351,35.4719298 110.710877,35.3908772 110.656842,35.2905263 C110.602807,35.1901754 110.562281,35.0763158 110.535263,34.9489474 C110.508246,34.8215789 110.494737,34.6884211 110.494737,34.5494737 C110.494737,34.5417544 110.512105,34.4221053 110.546842,34.1905263 C110.581579,33.9589474 110.629825,33.6540351 110.691579,33.2757895 C110.753333,32.8975439 110.844035,32.3957895 110.963684,31.7705263 C111.083333,31.1452632 111.185614,30.5778947 111.270526,30.0684211 C111.355439,29.5589474 111.438421,29.0533333 111.519474,28.5515789 C111.600526,28.0498246 111.675789,27.594386 111.745263,27.1852632 C111.745263,27.0540351 111.656491,26.9440351 111.478947,26.8552632 C111.301404,26.7664912 111.00807,26.714386 110.598947,26.6989474 C110.35193,26.7066667 110.13,26.7722807 109.933158,26.8957895 C109.736316,27.0192982 109.564561,27.1775439 109.417895,27.3705263 C109.271228,27.5635088 109.14386,27.7796491 109.035789,28.0189474 C108.927719,28.2582456 108.837018,28.4936842 108.763684,28.7252632 C108.690351,28.9568421 108.632456,29.1710526 108.59,29.3678947 C108.547544,29.5647368 108.518596,29.7210526 108.503158,29.8368421 C108.302456,31.3961404 108.086316,32.5694737 107.854737,33.3568421 C107.715789,33.897193 107.642456,34.6729825 107.634737,35.6842105 C107.634737,36.1705263 107.684912,36.5777193 107.785263,36.9057895 C107.885614,37.2338596 108.022632,37.4982456 108.196316,37.6989474 C108.37,37.8996491 108.568772,38.0424561 108.792632,38.1273684 C109.016491,38.2122807 109.255789,38.2547368 109.510526,38.2547368 Z M123.926316,38.2315789 C124.219649,38.1157895 124.493684,37.9961404 124.748421,37.8726316 C124.972281,37.7645614 125.19807,37.6449123 125.425789,37.5136842 C125.653509,37.3824561 125.832982,37.2512281 125.964211,37.12 C126.504561,36.9964912 127.015965,36.8575439 127.498421,36.7031579 C127.980877,36.5487719 128.444035,36.3654386 128.887895,36.1531579 C129.331754,35.9408772 129.764035,35.6919298 130.184737,35.4063158 C130.605439,35.1207018 131.02807,34.7849123 131.452632,34.3989474 L131.452632,34.3989474 L130.561053,32.4884211 C130.252281,32.797193 129.951228,33.0654386 129.657895,33.2931579 C129.364561,33.5208772 129.073158,33.7273684 128.783684,33.9126316 C128.494211,34.0978947 128.206667,34.2677193 127.921053,34.4221053 C127.635439,34.5764912 127.353684,34.7347368 127.075789,34.8968421 C127.307368,34.5417544 127.494561,34.1982456 127.637368,33.8663158 C127.780175,33.534386 127.892105,33.2005263 127.973158,32.8647368 C128.054211,32.5289474 128.110175,32.1854386 128.141053,31.8342105 C128.17193,31.4829825 128.187368,31.1105263 128.187368,30.7168421 C128.187368,30.2459649 128.121754,29.794386 127.990526,29.3621053 C127.859298,28.9298246 127.670175,28.5477193 127.423158,28.2157895 C127.17614,27.8838596 126.875088,27.6175439 126.52,27.4168421 C126.164912,27.2161404 125.759649,27.1157895 125.304211,27.1157895 C124.949123,27.1157895 124.592105,27.2798246 124.233158,27.6078947 C123.874211,27.9359649 123.478596,28.3701754 123.046316,28.9105263 L123.046316,28.9105263 L122.861053,28.7831579 C123.401404,28.1270175 123.943684,27.4284211 124.487895,26.6873684 C125.032105,25.9463158 125.524211,25.1878947 125.964211,24.4121053 C126.404211,23.6363158 126.761228,22.8585965 127.035263,22.0789474 C127.309298,21.2992982 127.446316,20.542807 127.446316,19.8094737 C127.446316,19.2845614 127.415439,18.7905263 127.353684,18.3273684 C127.29193,17.8642105 127.164561,17.4608772 126.971579,17.1173684 C126.778596,16.7738596 126.504561,16.5017544 126.149474,16.3010526 C125.794386,16.1003509 125.323509,16 124.736842,16 C124.21193,16 123.723684,16.2122807 123.272105,16.6368421 C122.820526,17.0614035 122.403684,17.6249123 122.021579,18.3273684 C121.639474,19.0298246 121.292105,19.8307018 120.979474,20.73 C120.666842,21.6292982 120.408246,22.6096491 120.203684,23.6710526 C119.999123,24.7324561 119.850526,25.6182456 119.757895,26.3284211 C119.642105,27.2547368 119.549474,28.1 119.48,28.8642105 C119.341053,29.5435088 119.194386,30.6126316 119.04,32.0715789 C118.93193,33.0596491 118.850877,33.897193 118.796842,34.5842105 C118.727368,35.3715789 118.681053,36.0778947 118.657895,36.7031579 C119.067018,37.0042105 119.491579,37.2975439 119.931579,37.5831579 C120.170877,37.7298246 120.753684,37.9305263 121.68,38.1852632 C121.767807,38.2122807 122.278185,38.2274781 123.211135,38.2308553 L123.926316,38.2315789 Z M121.517895,27.8684211 C121.564211,27.6136842 121.625965,27.2798246 121.703158,26.8668421 C121.780351,26.4538596 121.871053,25.9984211 121.975263,25.5005263 C122.079474,25.0026316 122.195263,24.4757895 122.322632,23.92 C122.45,23.3642105 122.587018,22.8180702 122.733684,22.2815789 C122.880351,21.7450877 123.030877,21.2317544 123.185263,20.7415789 C123.339649,20.2514035 123.497895,19.8191228 123.66,19.4447368 C123.822105,19.0703509 123.98614,18.7731579 124.152105,18.5531579 C124.31807,18.3331579 124.478246,18.2231579 124.632632,18.2231579 C124.76386,18.2231579 124.86807,18.265614 124.945263,18.3505263 C125.022456,18.4354386 125.082281,18.5319298 125.124737,18.64 C125.167193,18.7480702 125.194211,18.8522807 125.205789,18.9526316 C125.217368,19.0529825 125.223158,19.1185965 125.223158,19.1494737 C125.184561,19.6975439 125.097719,20.2359649 124.962632,20.7647368 C124.827544,21.2935088 124.657719,21.8145614 124.453158,22.3278947 C124.248596,22.8412281 124.020877,23.3429825 123.77,23.8331579 C123.519123,24.3233333 123.262456,24.8019298 123,25.2689474 C122.737544,25.7359649 122.477018,26.185614 122.218421,26.6178947 C121.959825,27.0501754 121.726316,27.4670175 121.517895,27.8684211 Z M122.617895,36.0663158 C122.370877,36.1049123 122.135439,36.1010526 121.911579,36.0547368 C121.656842,36.0007018 121.402105,35.9350877 121.147368,35.8578947 C121.170526,35.5877193 121.197544,35.2982456 121.228421,34.9894737 C121.259298,34.7192982 121.297895,34.4105263 121.344211,34.0631579 C121.46,33.1522807 121.517895,32.6891228 121.517895,32.6736842 C121.432982,32.5115789 121.564211,32.0715789 121.911579,31.3536842 C122.089123,30.9831579 122.293684,30.6801754 122.525263,30.4447368 C122.756842,30.2092982 123.007719,30.035614 123.277895,29.9236842 C123.54807,29.8117544 123.818246,29.7557895 124.088421,29.7557895 C124.389474,29.7557895 124.638421,29.7963158 124.835263,29.8773684 C125.032105,29.9584211 125.186491,30.0645614 125.298421,30.1957895 C125.410351,30.3270175 125.487544,30.4794737 125.53,30.6531579 C125.572456,30.8268421 125.593684,31.0101754 125.593684,31.2031579 C125.593684,31.4964912 125.574386,31.8187719 125.535789,32.17 C125.497193,32.5212281 125.439298,32.8763158 125.362105,33.2352632 C125.284912,33.5942105 125.184561,33.9396491 125.061053,34.2715789 C124.937544,34.6035088 124.790877,34.8987719 124.621053,35.1573684 C124.451228,35.4159649 124.258246,35.6224561 124.042105,35.7768421 C123.825965,35.9312281 123.586667,36.0084211 123.324211,36.0084211 C123.100351,36.0084211 122.864912,36.0277193 122.617895,36.0663158 Z M135.157895,38.2315789 C135.451228,38.1157895 135.725263,37.9961404 135.98,37.8726316 C136.20386,37.7645614 136.429649,37.6449123 136.657368,37.5136842 C136.885088,37.3824561 137.064561,37.2512281 137.195789,37.12 C137.73614,36.9964912 138.247544,36.8575439 138.73,36.7031579 C139.212456,36.5487719 139.675614,36.3654386 140.119474,36.1531579 C140.563333,35.9408772 140.995614,35.6919298 141.416316,35.4063158 C141.837018,35.1207018 142.259649,34.7849123 142.684211,34.3989474 L142.684211,34.3989474 L141.792632,32.4884211 C141.48386,32.797193 141.182807,33.0654386 140.889474,33.2931579 C140.59614,33.5208772 140.304737,33.7273684 140.015263,33.9126316 C139.725789,34.0978947 139.438246,34.2677193 139.152632,34.4221053 C138.867018,34.5764912 138.585263,34.7347368 138.307368,34.8968421 C138.538947,34.5417544 138.72614,34.1982456 138.868947,33.8663158 C139.011754,33.534386 139.123684,33.2005263 139.204737,32.8647368 C139.285789,32.5289474 139.341754,32.1854386 139.372632,31.8342105 C139.403509,31.4829825 139.418947,31.1105263 139.418947,30.7168421 C139.418947,30.2459649 139.353333,29.794386 139.222105,29.3621053 C139.090877,28.9298246 138.901754,28.5477193 138.654737,28.2157895 C138.407719,27.8838596 138.106667,27.6175439 137.751579,27.4168421 C137.396491,27.2161404 136.991228,27.1157895 136.535789,27.1157895 C136.180702,27.1157895 135.823684,27.2798246 135.464737,27.6078947 C135.105789,27.9359649 134.710175,28.3701754 134.277895,28.9105263 L134.277895,28.9105263 L134.092632,28.7831579 C134.632982,28.1270175 135.175263,27.4284211 135.719474,26.6873684 C136.263684,25.9463158 136.755789,25.1878947 137.195789,24.4121053 C137.635789,23.6363158 137.992807,22.8585965 138.266842,22.0789474 C138.540877,21.2992982 138.677895,20.542807 138.677895,19.8094737 C138.677895,19.2845614 138.647018,18.7905263 138.585263,18.3273684 C138.523509,17.8642105 138.39614,17.4608772 138.203158,17.1173684 C138.010175,16.7738596 137.73614,16.5017544 137.381053,16.3010526 C137.025965,16.1003509 136.555088,16 135.968421,16 C135.443509,16 134.955263,16.2122807 134.503684,16.6368421 C134.052105,17.0614035 133.635263,17.6249123 133.253158,18.3273684 C132.871053,19.0298246 132.523684,19.8307018 132.211053,20.73 C131.898421,21.6292982 131.639825,22.6096491 131.435263,23.6710526 C131.230702,24.7324561 131.082105,25.6182456 130.989474,26.3284211 C130.873684,27.2547368 130.781053,28.1 130.711579,28.8642105 C130.572632,29.5435088 130.425965,30.6126316 130.271579,32.0715789 C130.163509,33.0596491 130.082456,33.897193 130.028421,34.5842105 C129.958947,35.3715789 129.912632,36.0778947 129.889474,36.7031579 C130.298596,37.0042105 130.723158,37.2975439 131.163158,37.5831579 C131.402456,37.7298246 131.985263,37.9305263 132.911579,38.1852632 C132.999386,38.2122807 133.509764,38.2274781 134.442714,38.2308553 L135.157895,38.2315789 Z M132.749474,27.8684211 C132.795789,27.6136842 132.857544,27.2798246 132.934737,26.8668421 C133.01193,26.4538596 133.102632,25.9984211 133.206842,25.5005263 C133.311053,25.0026316 133.426842,24.4757895 133.554211,23.92 C133.681579,23.3642105 133.818596,22.8180702 133.965263,22.2815789 C134.11193,21.7450877 134.262456,21.2317544 134.416842,20.7415789 C134.571228,20.2514035 134.729474,19.8191228 134.891579,19.4447368 C135.053684,19.0703509 135.217719,18.7731579 135.383684,18.5531579 C135.549649,18.3331579 135.709825,18.2231579 135.864211,18.2231579 C135.995439,18.2231579 136.099649,18.265614 136.176842,18.3505263 C136.254035,18.4354386 136.31386,18.5319298 136.356316,18.64 C136.398772,18.7480702 136.425789,18.8522807 136.437368,18.9526316 C136.448947,19.0529825 136.454737,19.1185965 136.454737,19.1494737 C136.41614,19.6975439 136.329298,20.2359649 136.194211,20.7647368 C136.059123,21.2935088 135.889298,21.8145614 135.684737,22.3278947 C135.480175,22.8412281 135.252456,23.3429825 135.001579,23.8331579 C134.750702,24.3233333 134.494035,24.8019298 134.231579,25.2689474 C133.969123,25.7359649 133.708596,26.185614 133.45,26.6178947 C133.191404,27.0501754 132.957895,27.4670175 132.749474,27.8684211 Z M133.849474,36.0663158 C133.602456,36.1049123 133.367018,36.1010526 133.143158,36.0547368 C132.888421,36.0007018 132.633684,35.9350877 132.378947,35.8578947 C132.402105,35.5877193 132.429123,35.2982456 132.46,34.9894737 C132.490877,34.7192982 132.529474,34.4105263 132.575789,34.0631579 C132.691579,33.1522807 132.749474,32.6891228 132.749474,32.6736842 C132.664561,32.5115789 132.795789,32.0715789 133.143158,31.3536842 C133.320702,30.9831579 133.525263,30.6801754 133.756842,30.4447368 C133.988421,30.2092982 134.239298,30.035614 134.509474,29.9236842 C134.779649,29.8117544 135.049825,29.7557895 135.32,29.7557895 C135.621053,29.7557895 135.87,29.7963158 136.066842,29.8773684 C136.263684,29.9584211 136.41807,30.0645614 136.53,30.1957895 C136.64193,30.3270175 136.719123,30.4794737 136.761579,30.6531579 C136.804035,30.8268421 136.825263,31.0101754 136.825263,31.2031579 C136.825263,31.4964912 136.805965,31.8187719 136.767368,32.17 C136.728772,32.5212281 136.670877,32.8763158 136.593684,33.2352632 C136.516491,33.5942105 136.41614,33.9396491 136.292632,34.2715789 C136.169123,34.6035088 136.022456,34.8987719 135.852632,35.1573684 C135.682807,35.4159649 135.489825,35.6224561 135.273684,35.7768421 C135.057544,35.9312281 134.818246,36.0084211 134.555789,36.0084211 C134.33193,36.0084211 134.096491,36.0277193 133.849474,36.0663158 Z M145.671579,38.2315789 C146.134737,38.2315789 146.592105,38.1794737 147.043684,38.0752632 C147.495263,37.9710526 147.931404,37.8321053 148.352105,37.6584211 C148.772807,37.4847368 149.174211,37.2859649 149.556316,37.0621053 C149.938421,36.8382456 150.295439,36.6105263 150.627368,36.3789474 C151.391579,35.8385965 152.113333,35.217193 152.792632,34.5147368 L152.792632,34.5147368 L151.298947,32.9631579 C150.997895,33.2564912 150.631228,33.567193 150.198947,33.8952632 C149.766667,34.2233333 149.307368,34.5263158 148.821053,34.8042105 C148.334737,35.0821053 147.834912,35.3136842 147.321579,35.4989474 C146.808246,35.6842105 146.32,35.7768421 145.856842,35.7768421 C145.710175,35.7768421 145.573158,35.7614035 145.445789,35.7305263 C145.318421,35.6996491 145.196842,35.645614 145.081053,35.5684211 C144.965263,35.4912281 144.851404,35.3831579 144.739474,35.2442105 C144.627544,35.1052632 144.513684,34.9315789 144.397895,34.7231579 C145.069474,34.5378947 145.692807,34.2792982 146.267895,33.9473684 C146.842982,33.6154386 147.338947,33.237193 147.755789,32.8126316 C148.172632,32.3880702 148.537368,31.8785965 148.85,31.2842105 C149.162632,30.6898246 149.318947,30.1533333 149.318947,29.6747368 C149.318947,29.2347368 149.241754,28.837193 149.087368,28.4821053 C148.932982,28.1270175 148.718772,27.8240351 148.444737,27.5731579 C148.170702,27.3222807 147.848421,27.1273684 147.477895,26.9884211 C147.107368,26.8494737 146.705965,26.78 146.273684,26.78 C145.741053,26.78 145.256667,26.8745614 144.820526,27.0636842 C144.384386,27.252807 143.990702,27.5075439 143.639474,27.8278947 C143.288246,28.1482456 142.981404,28.5187719 142.718947,28.9394737 C142.456491,29.3601754 142.238421,29.8021053 142.064737,30.2652632 C141.891053,30.7284211 141.723158,31.2591228 141.561053,31.8573684 C141.398947,32.455614 141.317895,32.9708772 141.317895,33.4031579 C141.317895,34.0438596 141.408596,34.655614 141.59,35.2384211 C141.771404,35.8212281 142.043509,36.3345614 142.406316,36.7784211 C142.769123,37.2222807 143.222632,37.5754386 143.766842,37.8378947 C144.311053,38.1003509 144.945965,38.2315789 145.671579,38.2315789 Z M144.131579,32.7894737 C144.131579,32.6196491 144.139298,32.4150877 144.154737,32.1757895 C144.170175,31.9364912 144.241579,31.6315789 144.368947,31.2610526 C144.496316,30.8905263 144.608246,30.5798246 144.704737,30.3289474 C144.801228,30.0780702 144.928596,29.8542105 145.086842,29.6573684 C145.245088,29.4605263 145.44193,29.3003509 145.677368,29.1768421 C145.912807,29.0533333 146.196491,28.9915789 146.528421,28.9915789 C146.713684,28.9915789 146.87,29.1035088 146.997368,29.3273684 C147.124737,29.5512281 147.188421,29.8368421 147.188421,30.1842105 C147.188421,30.4312281 147.053333,30.7438596 146.783158,31.1221053 C146.512982,31.5003509 146.237018,31.8014035 145.955263,32.0252632 C145.673509,32.2491228 145.368596,32.4324561 145.040526,32.5752632 C144.712456,32.7180702 144.409474,32.7894737 144.131579,32.7894737 Z M151.958947,38.2315789 C152.097895,38.2315789 152.225263,38.2064912 152.341053,38.1563158 C152.456842,38.1061404 152.564912,38.0192982 152.665263,37.8957895 C152.765614,37.7722807 152.864035,37.6121053 152.960526,37.4152632 C153.057018,37.2184211 153.159298,36.9694737 153.267368,36.6684211 L153.267368,36.6684211 L155.34,30.8905263 L155.525263,30.8905263 C155.587018,31.3768421 155.66807,31.8573684 155.768421,32.3321053 C155.868772,32.8068421 156.023158,33.2352632 156.231579,33.6173684 C156.44,33.9994737 156.721754,34.3082456 157.076842,34.5436842 C157.43193,34.7791228 157.898947,34.8968421 158.477895,34.8968421 C158.802105,34.8968421 159.120526,34.8485965 159.433158,34.7521053 C159.745789,34.655614 160.046842,34.5359649 160.336316,34.3931579 C160.625789,34.2503509 160.897895,34.0978947 161.152632,33.9357895 C161.407368,33.7736842 161.635088,33.6270175 161.835789,33.4957895 L161.835789,33.4957895 L162.009474,30.7863158 C161.662105,31.0719298 161.307018,31.3266667 160.944211,31.5505263 C160.635439,31.7435088 160.295789,31.917193 159.925263,32.0715789 C159.554737,32.2259649 159.195789,32.3031579 158.848421,32.3031579 C158.724912,32.3031579 158.607193,32.28 158.495263,32.2336842 C158.383333,32.1873684 158.282982,32.1082456 158.194211,31.9963158 C158.105439,31.884386 158.034035,31.7357895 157.98,31.5505263 C157.925965,31.3652632 157.898947,31.1336842 157.898947,30.8557895 C157.898947,30.6936842 157.918246,30.4910526 157.956842,30.2478947 C157.995439,30.0047368 158.057193,29.6940351 158.142105,29.3157895 C158.227018,28.9375439 158.288772,28.6307018 158.327368,28.3952632 C158.365965,28.1598246 158.385263,27.9764912 158.385263,27.8452632 C158.385263,27.6754386 158.354386,27.5229825 158.292632,27.3878947 C158.230877,27.252807 158.147895,27.1389474 158.043684,27.0463158 C157.939474,26.9536842 157.817895,26.8822807 157.678947,26.8321053 C157.54,26.7819298 157.397193,26.7568421 157.250526,26.7568421 C156.825965,26.7568421 156.451579,26.8707018 156.127368,27.0984211 C155.803158,27.3261404 155.513684,27.6059649 155.258947,27.9378947 C155.004211,28.2698246 154.761053,28.6866667 154.529474,29.1884211 C154.297895,29.6901754 154.104912,30.0954386 153.950526,30.4042105 L153.950526,30.4042105 L153.823158,30.4042105 C153.807719,30.0105263 153.819298,29.5512281 153.857895,29.0263158 C153.896491,28.5014035 153.915789,28.0961404 153.915789,27.8105263 C153.915789,27.5712281 153.91,27.3821053 153.898421,27.2431579 C153.886842,27.1042105 153.854035,26.9980702 153.8,26.9247368 C153.745965,26.8514035 153.662982,26.8050877 153.551053,26.7857895 C153.439123,26.7664912 153.282807,26.7568421 153.082105,26.7568421 C152.904561,26.7568421 152.755965,26.7664912 152.636316,26.7857895 C152.516667,26.8050877 152.416316,26.8436842 152.335263,26.9015789 C152.254211,26.9594737 152.182807,27.0385965 152.121053,27.1389474 C152.059298,27.2392982 151.997544,27.374386 151.935789,27.5442105 C151.835439,27.7989474 151.735088,28.1231579 151.634737,28.5168421 C151.534386,28.9105263 151.414737,29.4026316 151.275789,29.9931579 C151.136842,30.5836842 151.022982,31.1394737 150.934211,31.6605263 C150.845439,32.1815789 150.768246,32.6929825 150.702632,33.1947368 C150.637018,33.6964912 150.584912,34.1731579 150.546316,34.6247368 C150.507719,35.0763158 150.488421,35.4719298 150.488421,35.8115789 C150.488421,36.1203509 150.505789,36.4194737 150.540526,36.7089474 C150.575263,36.9984211 150.644737,37.2570175 150.748947,37.4847368 C150.853158,37.7124561 151.001754,37.8938596 151.194737,38.0289474 C151.387719,38.1640351 151.642456,38.2315789 151.958947,38.2315789 Z M162.82,49 C163.306316,49 163.754035,48.922807 164.163158,48.7684211 C164.572281,48.6140351 164.921579,48.4114035 165.211053,48.1605263 C165.500526,47.9096491 165.764912,47.6066667 166.004211,47.2515789 C166.243509,46.8964912 166.436491,46.5394737 166.583158,46.1805263 C166.729825,45.8215789 166.857193,45.4278947 166.965263,44.9994737 C167.073333,44.5710526 167.154386,44.1889474 167.208421,43.8531579 C167.262456,43.5173684 167.308772,43.1680702 167.347368,42.8052632 C167.355088,42.6508772 167.374386,42.4308772 167.405263,42.1452632 C167.505614,41.1494737 167.594386,40.4682456 167.671579,40.1015789 C167.748772,39.7349123 167.891579,39.4821053 168.1,39.3431579 C168.964561,38.7642105 169.474035,38.4091228 169.628421,38.2778947 C170.137895,37.8687719 170.419649,37.6449123 170.473684,37.6063158 C170.643509,37.482807 170.921404,37.2435088 171.307368,36.8884211 C171.569825,36.6414035 171.816842,36.3866667 172.048421,36.1242105 C172.264561,35.877193 172.442105,35.6340351 172.581053,35.3947368 L172.581053,35.3947368 L172.025263,32.8242105 C171.515789,33.5575439 171.056491,34.1692982 170.647368,34.6594737 C170.238246,35.1496491 169.867719,35.5568421 169.535789,35.8810526 C169.20386,36.2052632 168.902807,36.4638596 168.632632,36.6568421 C168.362456,36.8498246 168.111579,37.0119298 167.88,37.1431579 C168.080702,35.8308772 168.277544,34.6035088 168.470526,33.4610526 C168.547719,32.9747368 168.64807,32.3321053 168.771579,31.5331579 C168.895088,30.7342105 168.997368,30.1147368 169.078421,29.6747368 C169.159474,29.2347368 169.234737,28.8410526 169.304211,28.4936842 C169.373684,28.1463158 169.431579,27.8722807 169.477895,27.6715789 C169.501053,27.5789474 169.512632,27.4978947 169.512632,27.4284211 C169.512632,27.2045614 169.431579,27.0405263 169.269474,26.9363158 C169.107368,26.8321053 168.906667,26.78 168.667368,26.78 C168.466667,26.78 168.254386,26.8147368 168.030526,26.8842105 C167.806667,26.9536842 167.590526,27.0598246 167.382105,27.2026316 C167.173684,27.3454386 166.992281,27.517193 166.837895,27.7178947 C166.675789,27.9263158 166.567719,28.1578947 166.513684,28.4126316 L166.513684,28.4126316 L165.587368,32.7431579 C165.556491,32.9901754 165.488947,33.2989474 165.384737,33.6694737 C165.280526,34.04 165.143509,34.3989474 164.973684,34.7463158 C164.80386,35.0936842 164.603158,35.3908772 164.371579,35.6378947 C164.14,35.8849123 163.881404,36.0084211 163.595789,36.0084211 C163.418246,36.0084211 163.271579,35.9640351 163.155789,35.8752632 C163.04,35.7864912 162.947368,35.6707018 162.877895,35.5278947 C162.808421,35.3850877 162.760175,35.2229825 162.733158,35.0415789 C162.70614,34.8601754 162.692632,34.6729825 162.692632,34.48 C162.692632,34.1094737 162.723509,33.6810526 162.785263,33.1947368 C162.847018,32.7084211 162.949298,32.0580702 163.092105,31.2436842 C163.234912,30.4292982 163.37386,29.7808772 163.508947,29.2984211 C163.644035,28.8159649 163.781053,28.397193 163.92,28.0421053 C163.966316,27.9263158 163.999123,27.8182456 164.018421,27.7178947 C164.037719,27.6175439 164.047368,27.5249123 164.047368,27.44 C164.047368,27.154386 163.950877,26.9440351 163.757895,26.8089474 C163.564912,26.6738596 163.333333,26.6063158 163.063158,26.6063158 C162.746667,26.6063158 162.422456,26.6970175 162.090526,26.8784211 C161.758596,27.0598246 161.50386,27.3242105 161.326316,27.6715789 C161.087018,28.1578947 160.874737,28.6384211 160.689474,29.1131579 C160.504211,29.5878947 160.330526,30.234386 160.168421,31.0526316 C160.006316,31.8708772 159.892456,32.5617544 159.826842,33.1252632 C159.761228,33.6887719 159.728421,34.3063158 159.728421,34.9778947 C159.728421,35.4873684 159.809474,35.9447368 159.971579,36.35 C160.133684,36.7552632 160.349825,37.0987719 160.62,37.3805263 C160.890175,37.6622807 161.200877,37.8784211 161.552105,38.0289474 C161.903333,38.1794737 162.264211,38.2547368 162.634737,38.2547368 C163.059298,38.2547368 163.497368,38.1408772 163.948947,37.9131579 C164.400526,37.6854386 164.834737,37.3863158 165.251579,37.0157895 L165.251579,37.0157895 L164.996842,38.4168421 C164.510526,38.8414035 164.091754,39.2389474 163.740526,39.6094737 C163.389298,39.98 162.943509,40.4701754 162.403158,41.08 C162.132982,41.3733333 161.874386,41.7014035 161.627368,42.0642105 C161.380351,42.4347368 161.198947,42.7184211 161.083158,42.9152632 C160.967368,43.1121053 160.766667,43.4652632 160.481053,43.9747368 C159.971579,44.885614 159.747719,45.7501754 159.809474,46.5684211 C159.840351,47.0007018 159.944561,47.3770175 160.122105,47.6973684 C160.299649,48.0177193 160.527368,48.2705263 160.805263,48.4557895 C161.083158,48.6410526 161.39,48.7780702 161.725789,48.8668421 C162.061579,48.955614 162.426316,49 162.82,49 Z M162.565263,46.7768421 C162.055789,46.7768421 161.928421,46.4063158 162.183158,45.6652632 C162.49193,44.7852632 162.908772,43.9207018 163.433684,43.0715789 C163.958596,42.2224561 164.491228,41.6049123 165.031579,41.2189474 C165.01614,41.3270175 164.991053,41.5759649 164.956316,41.9657895 C164.921579,42.355614 164.882982,42.685614 164.840526,42.9557895 C164.79807,43.2259649 164.742105,43.4729825 164.672632,43.6968421 C164.549123,44.1136842 164.446842,44.4475439 164.365789,44.6984211 C164.284737,44.9492982 164.192105,45.2040351 164.087895,45.4626316 C163.983684,45.7212281 163.885263,45.9219298 163.792632,46.0647368 C163.7,46.2075439 163.59193,46.3387719 163.468421,46.4584211 C163.344912,46.5780702 163.209825,46.6610526 163.063158,46.7073684 C162.916491,46.7536842 162.750526,46.7768421 162.565263,46.7768421 Z" id="Grubbery"></path>
            </g>
        </g>
    </g>
</svg>