<?xml version="1.0" encoding="UTF-8"?>
<svg width="16px" height="16px" viewBox="0 0 12 12" version="1.1" xmlns="http://www.w3.org/2000/svg" xmlns:xlink="http://www.w3.org/1999/xlink">
    <title>116F9D06-989F-4941-B709-AF27FD03B327</title>
    <g id="Branding" stroke="none" stroke-width="1" fill="none" fill-rule="evenodd">
        <g id="Browse" transform="translate(-331.000000, -573.000000)" fill="#444444" fill-rule="nonzero">
            <g id="Group" transform="translate(78.500000, 366.000000)">
                <path d="M258.999985,219 C259.276229,219 259.499983,218.776246 259.499983,218.500001 L259.499983,214.000012 L263.999973,214.000012 C264.276217,214.000012 264.499971,213.776258 264.499971,213.500013 L264.499971,212.500015 C264.499971,212.223771 264.276217,212.000017 263.999973,212.000017 L259.499983,212.000017 L259.499983,207.500029 C259.499983,207.223783 259.276229,207.000029 258.999985,207.000029 L257.999987,207.000029 C257.723742,207.000029 257.499988,207.223783 257.499988,207.500029 L257.499988,212.000017 L253,212.000017 C252.723754,212.000017 252.5,212.223771 252.5,212.500015 L252.5,213.500013 C252.5,213.776258 252.723754,214.000012 253,214.000012 L257.499988,214.000012 L257.499988,218.500001 C257.499988,218.776246 257.723742,219 257.999987,219 L258.999985,219 Z" id="pplus"></path>
            </g>
        </g>
    </g>
</svg>