<?xml version="1.0" encoding="UTF-8"?>
<svg width="13px" height="8px" viewBox="0 0 16 11" version="1.1" xmlns="http://www.w3.org/2000/svg" xmlns:xlink="http://www.w3.org/1999/xlink">
    <title>54071512-E553-4479-BC3A-3D7BB6BFA351</title>
    <g id="Branding" stroke="none" stroke-width="1" fill="none" fill-rule="evenodd">
        <g id="Menu" transform="translate(-1045.000000, -448.000000)" fill="#444444" fill-rule="nonzero">
            <g id="Rectangle" transform="translate(343.500000, 407.000000)">
                <path d="M712.665238,51.226438 L717.374438,46.4819273 C717.541854,46.3132213 717.541854,46.0397199 717.374438,45.8709787 L712.665168,41.1265032 C712.497718,40.9578323 712.226252,40.9578323 712.058801,41.1265032 L711.357561,41.8330015 C711.187738,42.0040981 711.190529,42.2824156 711.363737,42.4500319 L714.247835,45.2405193 L701.928763,45.2405193 C701.69198,45.2405193 701.5,45.433939 701.5,45.6724968 L701.5,46.6804443 C701.5,46.9190022 701.69198,47.1124218 701.928763,47.1124218 L714.247835,47.1124218 L711.363807,49.9029093 C711.190529,50.0705256 711.187738,50.3488431 711.357596,50.5199396 L712.058836,51.226438 C712.226287,51.3951089 712.497753,51.3951089 712.665238,51.226438 Z" id="llong-arrow-right"></path>
            </g>
        </g>
    </g>
</svg>