<?xml version="1.0" encoding="UTF-8"?>
<svg width="13px" height="8px" viewBox="0 0 13 9" version="1.1" xmlns="http://www.w3.org/2000/svg" xmlns:xlink="http://www.w3.org/1999/xlink">
    <title>398601E9-4873-4658-BD16-98A509BED796</title>
    <g id="Branding" stroke="none" stroke-width="1" fill="none" fill-rule="evenodd">
        <g id="Menu" transform="translate(-506.000000, -305.000000)" fill="#444444" fill-rule="nonzero">
            <g id="Group-4" transform="translate(490.000000, 286.000000)">
                <path d="M20.1695114,27.5858989 L20.7061579,27.0492524 C20.8361205,26.9192898 20.8339843,26.7078836 20.7014315,26.5805645 L18.4942835,24.4609483 L27.9218466,24.4609483 C28.1030519,24.4609483 28.2499708,24.3140294 28.2499708,24.1328241 L28.2499708,23.3672009 C28.2499708,23.1859956 28.1030519,23.0390767 27.9218466,23.0390767 L18.4942835,23.0390767 L20.7013781,20.9194605 C20.8339843,20.7921415 20.8361205,20.5807353 20.7061312,20.4507726 L20.1694847,19.9141261 C20.0413379,19.786006 19.83359,19.786006 19.7054164,19.9141261 L16.1016042,23.5179917 C15.9734841,23.6461386 15.9734841,23.8538865 16.1016042,23.98206 L19.7054698,27.5859256 C19.8336167,27.714019 20.0413646,27.714019 20.1695114,27.5858989 Z" id="llong-arrow-left"></path>
            </g>
        </g>
    </g>
</svg>